# xmcd
#
# Track frame offsets: 
#        150
#        18422
#        41676
#        55963
#        70061
#        93196
#        111307
#        126083
#        143016
#        161218
#        175856
#        189498
#
# Disc length: 2757 seconds
#
# Revision: 0
# Processed by: cddbd v1.5.2PL0 Copyright (c) Steve Scherf et al.
# Submitted via: ExactAudioCopy v0.99pb1
#
DISCID=a30ac30c
DTITLE=Omar Kent Dykes and Jimmy Vaughan - On The Jimmy Reed Highway
DYEAR=2007
DGENRE=Blues
TTITLE0=Jimmy Reed Highway
TTITLE1=Baby What You Want Me To Do/bright Lights Big City
TTITLE2=Big Boss Man
TTITLE3=Good Lover
TTITLE4=Caress Me Baby
TTITLE5=Aw Shucks, Hush Your Mouth
TTITLE6=You Upset My Mind
TTITLE7=I'll Change My Style
TTITLE8=Bad Boy
TTITLE9=Baby, What's Wrong
TTITLE10=Hush, Hush
TTITLE11=You Made Me Laugh
EXTD=
EXTT0=
EXTT1=
EXTT2=
EXTT3=
EXTT4=
EXTT5=
EXTT6=
EXTT7=
EXTT8=
EXTT9=
EXTT10=
EXTT11=
PLAYORDER=
